<svg width="158" height="34" viewBox="0 0 158 34" fill="none" xmlns="http://www.w3.org/2000/svg">
<path d="M83.4294 3.99443H88.5998V1.75487H83.4294V3.99443ZM84.5803 12.2674H88.4452C91.3311 12.2674 93.2035 10.078 92.6022 7.48746L91.4857 2.65738L88.8919 3.91086L89.9912 8.72423C89.6133 8.85794 89.1839 8.92479 88.6342 8.92479H84.4772C83.0686 8.92479 82.2269 7.92201 82.5361 6.58496L83.0686 4.22841H80.7668L80.1484 6.93593C79.4442 10.0279 81.2993 12.2674 84.5803 12.2674Z" fill="black"/>
<path d="M93.5065 12.6685L96.1862 11.9499V0.802228L93.5065 1.50418V12.6685Z" fill="black"/>
<path d="M97.2972 12.2674H100.114C103.035 12.2674 104.666 10.0947 104.271 7.60446L104.014 6.03343C103.825 4.77994 103.069 3.76045 101.952 3.10863L99.8739 1.90529L98.826 4.62953L100.372 5.53203C100.887 5.83287 101.248 6.31755 101.386 6.90251L101.746 8.72423C101.3 8.85794 100.801 8.92479 100.149 8.92479H96.9709L97.2972 12.2674Z" fill="black"/>
<path d="M116.792 16.6128L118.115 15.5432C118.613 15.1253 118.905 14.5571 119.043 13.8719L119.335 12.2674H121.207C121.705 12.2674 122.117 11.5153 122.117 10.5961C122.117 9.67688 121.705 8.92479 121.207 8.92479H120.709C118.871 8.92479 117.393 10.0613 117.05 11.8329L116.638 14.039L114.301 13.4708C113.529 13.2702 113.065 12.8022 113.065 12.0167V11.2145H115.006C116.569 11.2145 117.823 10.195 118.063 8.69081L118.321 7.4039C118.751 4.9805 117.067 3.29248 114.782 3.29248H112.515L111.45 4.31198C110.952 4.79666 110.694 5.41504 110.694 6.08357V8.92479H109.028C108.392 8.92479 107.963 8.52368 107.963 7.87187V0.802228L105.283 1.50418L105.318 8.72423C105.335 10.8802 106.743 12.2674 108.787 12.2674H110.694V12.468C110.694 14.4234 111.948 15.4095 113.872 15.8941L116.792 16.6128ZM113.03 8.89137V5.89972H114.662C115.521 5.89972 116.191 6.56824 115.985 7.5376L115.71 8.89137H113.03Z" fill="black"/>
<path d="M123.744 2.92479H126.372V0.467966H123.744V2.92479ZM119.913 10.5961C119.913 11.5153 120.325 12.2674 120.841 12.2674H122.232C122.902 12.2674 123.452 12 123.83 11.4819L124.276 10.8301C124.877 11.7159 125.908 12.2674 127.145 12.2674H128.468C128.983 12.2674 129.395 11.5153 129.395 10.5961C129.395 9.67688 128.983 8.92479 128.468 8.92479H127.368C126.801 8.92479 126.355 8.50696 126.355 7.93872V4.01114L123.692 4.52925V8.07242C123.692 8.37326 123.709 8.64067 123.761 8.92479H120.841C120.325 8.92479 119.913 9.67688 119.913 10.5961Z" fill="black"/>
<path d="M139.295 1.87187H137.852L137.921 0H135.482L135.551 1.87187H134.108V4.11142H139.295V1.87187ZM145.41 8.92479H143.968C143.59 8.92479 143.349 8.79109 143.195 8.67409L141.923 2.89136L139.484 4.19499L140.635 9.40947L138.041 8.67409C138.058 8.49025 138.058 8.27298 138.058 8.07242V5.91643H135.654V7.85515C135.654 8.47354 135.207 8.92479 134.571 8.92479H132.51V4.44568L130.122 4.96379V8.92479H128.13C127.614 8.92479 127.202 9.67688 127.202 10.5961C127.202 11.5153 127.614 12.2674 128.13 12.2674H134.417C135.413 12.2674 136.169 12.0836 136.753 11.4485L141.442 12.8022L142.542 11.4652L142.576 11.4318C143.023 11.9499 143.624 12.2674 144.328 12.2674H145.41C145.926 12.2674 146.338 11.5153 146.338 10.5961C146.338 9.67688 145.926 8.92479 145.41 8.92479Z" fill="black"/>
<path d="M144.137 10.5961C144.137 11.5153 144.549 12.2674 145.065 12.2674H146.456C147.126 12.2674 147.676 12 148.053 11.4819L148.5 10.8301C149.101 11.7159 150.132 12.2674 151.369 12.2674H152.691C153.207 12.2674 153.619 11.5153 153.619 10.5961C153.619 9.67688 153.207 8.92479 152.691 8.92479H151.592C151.025 8.92479 150.579 8.50696 150.579 7.93872V4.01114L147.916 4.52925V8.07242C147.916 8.37326 147.933 8.64067 147.985 8.92479H145.065C144.549 8.92479 144.137 9.67688 144.137 10.5961ZM146.164 16.1281H151.334V13.8719H146.164V16.1281Z" fill="black"/>
<path d="M152.336 12.2674H153.797C156.7 12.2674 158.555 10.1114 157.85 7.00279L156.871 2.64067L154.26 3.87744L155.343 8.72423C154.965 8.85794 154.501 8.92479 153.968 8.92479H152.336C151.821 8.92479 151.409 9.67688 151.409 10.5961C151.409 11.5153 151.821 12.2674 152.336 12.2674ZM151.873 16.1281H153.298L153.23 18H155.669L155.6 16.1281H157.043V13.8719H151.873V16.1281Z" fill="black"/>
<path d="M3.89513 17.3212H6.83087V14.4469H3.89513V17.3212ZM1.5734 33.2961L4.24051 32.1816C5.58366 31.6145 6.14011 30.5196 6.21686 28.9553V28.6034C6.69656 29.2877 7.38732 29.4832 8.15483 29.4832H8.92234C9.47879 29.4832 9.95849 28.6034 9.95849 27.5279C9.95849 26.4525 9.47879 25.5726 8.92234 25.5726H7.96295C7.32975 25.5726 6.85006 25.1034 6.85006 24.3994V19.4134L3.85676 20.0196V28.3883C3.54975 28.5251 3.24274 28.6425 2.93574 28.7793L0 29.9916L1.5734 33.2961Z" fill="#FF253F"/>
<path d="M7.50049 27.5279C7.50049 28.6034 7.961 29.4832 8.53664 29.4832H10.0909C10.8392 29.4832 11.4532 29.1704 11.8753 28.5642L12.3742 27.8017C13.0458 28.838 14.1971 29.4832 15.5786 29.4832H17.056C17.6317 29.4832 18.0922 28.6034 18.0922 27.5279C18.0922 26.4525 17.6317 25.5726 17.056 25.5726H15.828C15.1948 25.5726 14.6959 25.0838 14.6959 24.419V19.824L11.7218 20.4302V24.5754C11.7218 24.9274 11.741 25.2402 11.7986 25.5726H8.53664C7.961 25.5726 7.50049 26.4525 7.50049 27.5279ZM9.76466 34H15.5402V31.3603H9.76466V34Z" fill="#FF253F"/>
<path d="M28.5176 25.5726H27.9804C27.3088 25.5726 26.8867 25.162 26.8099 24.595L26.5413 23.0503C26.2535 21.3883 24.9871 20.3128 23.2985 20.3128H20.6506L23.3753 17.7709L21.8786 14.7989L19.672 16.9888L18.9429 15.4832L15.9112 18.4358L16.7363 20.3128L16.7555 20.2933L18.1946 23.5391H22.7996C23.2985 23.5391 23.6439 23.8715 23.7399 24.3799L23.9125 25.3575C23.9125 25.4553 23.9317 25.4749 23.9317 25.5726H16.6787C16.1031 25.5726 15.6426 26.4525 15.6426 27.5279C15.6426 28.6034 16.1031 29.4832 16.6787 29.4832H22.934C23.7207 29.4832 24.3155 29.1508 24.7568 28.5056L25.1598 27.8994C25.8505 28.8771 26.9634 29.4832 28.2298 29.4832H28.5176C29.0933 29.4832 29.5538 28.6034 29.5538 27.5279C29.5538 26.4525 29.0933 25.5726 28.5176 25.5726Z" fill="#FF253F"/>
<path d="M30.133 17.0084H33.0495V14.1536H30.133V17.0084ZM28.1183 29.4832H29.7492C32.992 29.4832 35.0643 26.9609 34.2776 23.324L33.1839 18.2207L30.2673 19.6676L31.4761 25.338C31.054 25.4944 30.5359 25.5726 29.9411 25.5726H28.1183C27.5426 25.5726 27.0821 26.4525 27.0821 27.5279C27.0821 28.6034 27.5426 29.4832 28.1183 29.4832Z" fill="#FF253F"/>
<path d="M35.3259 29.9525L38.3192 29.1117V16.0698L35.3259 16.8911V29.9525Z" fill="#FF253F"/>
<path d="M45.0667 19.8045H50.8422V17.1844H45.0667V19.8045ZM46.3523 29.4832H57.0015C57.5772 29.4832 58.0377 28.6034 58.0377 27.5279C58.0377 26.4525 57.5772 25.5726 57.0015 25.5726H54.7757V19.6676L51.7824 20.2737V25.5726H46.2371C44.6637 25.5726 43.7235 24.3994 44.0689 22.8352L44.6637 20.0782H42.0926L41.4018 23.2458C40.6151 26.8631 42.6874 29.4832 46.3523 29.4832Z" fill="#FF253F"/>
<path d="M60.6312 15.8547H63.5669V13H60.6312V15.8547ZM55.5656 27.5279C55.5656 28.6034 56.0261 29.4832 56.6017 29.4832H57.5995C58.3478 29.4832 58.9618 29.1508 59.384 28.5447C59.5375 28.3296 59.691 28.1145 59.8445 27.8799C60.516 28.8575 61.6673 29.4832 63.068 29.4832H70.0332C70.6088 29.4832 71.0694 28.6034 71.0694 27.5279C71.0694 26.4525 70.6088 25.5726 70.0332 25.5726H68.0185L68.1144 23.676C68.2487 21.1341 67.155 19.5307 64.7949 18.6508L62.0127 17.595L60.8039 18.7291C60.2474 19.2374 59.902 19.8827 59.7677 20.6844L59.1153 24.4972C59.0578 24.8687 59.0578 25.2402 59.1153 25.5726H56.6017C56.0261 25.5726 55.5656 26.4525 55.5656 27.5279ZM61.9551 24.3603L62.4924 21.0754L64.4304 21.7793C65.0636 22.014 65.3898 22.4637 65.3514 23.1676L65.1979 25.5726H62.9337C62.2813 25.5726 61.84 25.0447 61.9551 24.3603Z" fill="#FF253F"/>
<path d="M81.4738 25.5726H80.9365C80.265 25.5726 79.8428 25.162 79.7661 24.595L79.4975 23.0503C79.2096 21.3883 77.9432 20.3128 76.2547 20.3128H73.6068L76.3315 17.7709L74.8348 14.7989L72.6282 16.9888L71.8991 15.4832L68.8674 18.4358L69.6925 20.3128L69.7117 20.2933L71.1507 23.5391H75.7558C76.2547 23.5391 76.6001 23.8715 76.696 24.3799L76.8687 25.3575C76.8687 25.4553 76.8879 25.4749 76.8879 25.5726H69.6349C69.0593 25.5726 68.5988 26.4525 68.5988 27.5279C68.5988 28.6034 69.0593 29.4832 69.6349 29.4832H75.8901C76.6768 29.4832 77.2717 29.1508 77.713 28.5056L78.1159 27.8994C78.8067 28.8771 79.9196 29.4832 81.186 29.4832H81.4738C82.0494 29.4832 82.5099 28.6034 82.5099 27.5279C82.5099 26.4525 82.0494 25.5726 81.4738 25.5726Z" fill="#FF253F"/>
<path d="M93.5657 17.3212H91.954L92.0307 15.1313H89.306L89.3828 17.3212H87.771V19.9413H93.5657V17.3212ZM97.9022 25.2207L96.4823 18.4358L93.7576 19.9413L95.0624 26.1397L92.165 25.2793C92.165 25.0447 92.1842 24.8101 92.1842 24.5559V22.0531H89.4979V24.3212C89.4979 25.0447 88.999 25.5726 88.2891 25.5726H85.9865V20.3324L83.3194 20.9385V25.5726H81.0936C80.518 25.5726 80.0575 26.4525 80.0575 27.5279C80.0575 28.6034 80.518 29.4832 81.0936 29.4832H88.1164C89.2293 29.4832 90.0735 29.2682 90.7259 28.5251L95.9642 30.0894L97.0771 28.7011C97.883 27.6844 98.1708 26.4721 97.9022 25.2207Z" fill="#FF253F"/>
</svg>
