<svg width="91" height="104" viewBox="0 0 91 104" fill="none" xmlns="http://www.w3.org/2000/svg">
<path fill-rule="evenodd" clip-rule="evenodd" d="M67.25 24.55C67.25 12.1277 56.5759 2.16639 43.9207 3.39413L43.9162 3.39456C33.3804 4.3779 24.75 14.8207 24.75 25.5V30.35C24.75 31.0403 24.1904 31.6 23.5 31.6C22.8096 31.6 22.25 31.0403 22.25 30.35V25.5C22.25 13.68 31.7184 2.02352 43.6816 0.905593C57.8254 -0.465255 69.75 10.673 69.75 24.55V31.45C69.75 32.1403 69.1904 32.7 68.5 32.7C67.8096 32.7 67.25 32.1403 67.25 31.45V24.55Z" fill="#8CA0B2"/>
<path fill-rule="evenodd" clip-rule="evenodd" d="M4.68084 37.6954C8.40653 33.266 15.0782 30.75 25.8999 30.75H65.9499C76.7717 30.75 83.4434 33.266 87.169 37.6954C90.8828 42.1107 91.3782 48.0895 90.6924 54.2875L90.6903 54.305L86.9417 84.2941C86.4075 89.2704 85.2013 94.1195 81.3118 97.6729C77.4307 101.219 71.128 103.25 60.9499 103.25H30.8999C20.7219 103.25 14.4192 101.219 10.5381 97.6729C6.64857 94.1195 5.44242 89.2705 4.90824 84.2942L1.1596 54.305L1.15753 54.2875C0.471687 48.0895 0.967054 42.1107 4.68084 37.6954ZM3.64139 54.0038L7.39029 83.995L7.39283 84.0168C7.90925 88.8367 9.02919 92.9082 12.2243 95.8271C15.4307 98.7565 20.978 100.75 30.8999 100.75H60.9499C70.8719 100.75 76.4192 98.7565 79.6256 95.8271C82.8207 92.9082 83.9406 88.8367 84.4571 84.0168L84.4596 83.995L88.2085 54.0042C88.8712 48.0058 88.2906 42.9127 85.2558 39.3046C82.2315 35.709 76.4782 33.25 65.9499 33.25H25.8999C15.3717 33.25 9.61836 35.709 6.59405 39.3046C3.55931 42.9126 2.97876 48.0055 3.64139 54.0038Z" fill="#8CA0B2"/>
<path d="M33.4256 52C34.8597 52 36 53.2174 36 54.5C36 55.9777 34.9614 57 33.7167 57H33.4256C32.0874 57 31 55.8793 31 54.5C31 53.1207 32.0874 52 33.4256 52Z" fill="#8CA0B2"/>
<path fill-rule="evenodd" clip-rule="evenodd" d="M33.4256 51.5C35.1362 51.5 36.5 52.9416 36.5 54.5C36.5 56.2259 35.2647 57.5 33.7167 57.5H33.4256C31.7971 57.5 30.5 56.1411 30.5 54.5C30.5 52.8589 31.7971 51.5 33.4256 51.5ZM36 54.5C36 53.2174 34.8597 52 33.4256 52C32.0874 52 31 53.1207 31 54.5C31 55.8793 32.0874 57 33.4256 57H33.7167C34.9614 57 36 55.9777 36 54.5Z" fill="#8CA0B2"/>
<path d="M58.4256 52C59.8597 52 61 53.2174 61 54.5C61 55.9824 59.9635 57 58.7231 57H58.4256C57.0874 57 56 55.8793 56 54.5C56 53.1207 57.0874 52 58.4256 52Z" fill="#8CA0B2"/>
<path fill-rule="evenodd" clip-rule="evenodd" d="M58.4256 51.5C60.1362 51.5 61.5 52.9416 61.5 54.5C61.5 56.2299 60.2674 57.5 58.7231 57.5H58.4256C56.7971 57.5 55.5 56.1411 55.5 54.5C55.5 52.8589 56.7971 51.5 58.4256 51.5ZM61 54.5C61 53.2174 59.8597 52 58.4256 52C57.0874 52 56 53.1207 56 54.5C56 55.8793 57.0874 57 58.4256 57H58.7231C59.9635 57 61 55.9824 61 54.5Z" fill="#8CA0B2"/>
<path d="M58.2204 77C58.6512 77 59.0028 76.6505 58.977 76.2205C58.8905 74.7798 58.5645 73.3618 58.0108 72.0251C57.3575 70.4479 56.4 69.0148 55.1928 67.8076C53.9856 66.6004 52.5525 65.6429 50.9753 64.9896C49.3981 64.3363 47.7076 64 46.0004 64C44.2932 64 42.6028 64.3363 41.0255 64.9896C39.4483 65.6429 38.0152 66.6005 36.808 67.8076C35.6009 69.0148 34.6433 70.4479 33.99 72.0251C33.4363 73.3618 33.1103 74.7798 33.0238 76.2205C32.998 76.6505 33.3496 77 33.7804 77C34.2112 77 34.5576 76.6504 34.587 76.2206C34.6714 74.985 34.956 73.7695 35.4312 72.6221C36.0061 71.2341 36.8488 69.973 37.9111 68.9107C38.9734 67.8484 40.2345 67.0057 41.6225 66.4308C43.0105 65.8559 44.4981 65.56 46.0004 65.56C47.5027 65.56 48.9903 65.8559 50.3783 66.4308C51.7663 67.0057 53.0274 67.8484 54.0897 68.9107C55.152 69.973 55.9947 71.2341 56.5696 72.6221C57.0449 73.7695 57.3294 74.985 57.4138 76.2206C57.4432 76.6504 57.7896 77 58.2204 77Z" fill="#8CA0B2"/>
<path fill-rule="evenodd" clip-rule="evenodd" d="M59.4757 76.1905C59.3858 74.6945 59.0473 73.2219 58.4724 71.8338C57.7939 70.1959 56.7995 68.7076 55.5459 67.4541C54.2923 66.2005 52.8041 65.2061 51.1662 64.5276C49.5283 63.8492 47.7728 63.5 46 63.5C44.2271 63.5 42.4716 63.8492 40.8338 64.5276C39.1959 65.2061 37.7076 66.2005 36.454 67.4541C35.2004 68.7076 34.206 70.1959 33.5276 71.8338C32.9526 73.2219 32.6141 74.6945 32.5243 76.1905C32.48 76.9278 33.0816 77.5 33.78 77.5C34.4949 77.5 35.0396 76.925 35.0854 76.2547C35.1661 75.0731 35.4382 73.9107 35.8927 72.8134C36.4425 71.4861 37.2484 70.2801 38.2642 69.2643C39.2801 68.2484 40.4861 67.4425 41.8134 66.8928C43.1407 66.343 44.5633 66.06 46 66.06C47.4366 66.06 48.8592 66.343 50.1865 66.8928C51.5138 67.4425 52.7199 68.2484 53.7357 69.2643C54.7516 70.2801 55.5574 71.4861 56.1072 72.8134C56.5617 73.9107 56.8339 75.0731 56.9146 76.2547C56.9603 76.925 57.505 77.5 58.22 77.5C58.9184 77.5 59.52 76.9278 59.4757 76.1905ZM58.9766 76.2205C59.0024 76.6505 58.6508 77 58.22 77C57.7892 77 57.4427 76.6504 57.4134 76.2206C57.329 74.985 57.0444 73.7695 56.5692 72.6221C55.9942 71.2341 55.1516 69.973 54.0893 68.9107C53.027 67.8484 51.7658 67.0057 50.3779 66.4308C48.9899 65.8559 47.5023 65.56 46 65.56C44.4977 65.56 43.01 65.8559 41.6221 66.4308C40.2341 67.0057 38.973 67.8484 37.9107 68.9107C36.8484 69.973 36.0057 71.2341 35.4308 72.6221C34.9555 73.7695 34.6709 74.985 34.5866 76.2206C34.5572 76.6504 34.2108 77 33.78 77C33.3492 77 32.9975 76.6505 33.0234 76.2205C33.1099 74.7798 33.4359 73.3618 33.9895 72.0251C34.6429 70.4479 35.6004 69.0148 36.8076 67.8076C38.0148 66.6004 39.4479 65.6429 41.0251 64.9896C42.6023 64.3363 44.2928 64 46 64C47.7072 64 49.3976 64.3363 50.9749 64.9896C52.5521 65.6429 53.9852 66.6004 55.1924 67.8076C56.3995 69.0148 57.3571 70.4479 58.0104 72.0251C58.5641 73.3618 58.89 74.7798 58.9766 76.2205Z" fill="#8CA0B2"/>
</svg>
